HIERARCHY
ROOT Bone-00
{
	OFFSET 0.000000 0.000000 0.000000
	CHANNELS 6 Xposition Yposition Zposition Xrotation Yrotation Zrotation
	JOINT Bone-20
	{
		OFFSET 0.000000 0.000000 2.000000
		CHANNELS 3 Xrotation Yrotation Zrotation
		JOINT Bone-60
		{
			OFFSET 0.000000 0.000000 -0.300000
			CHANNELS 3 Xrotation Yrotation Zrotation
			JOINT Bone-61
			{
				OFFSET 0.300000 0.000000 0.000000
				CHANNELS 3 Xrotation Yrotation Zrotation
				JOINT Bone-62
				{
					OFFSET 0.000000 0.000000 -0.700000
					CHANNELS 3 Xrotation Yrotation Zrotation
					JOINT Bone-63
					{
						OFFSET 0.000000 0.000000 -0.800000
						CHANNELS 3 Xrotation Yrotation Zrotation
						End Site
						{
							OFFSET 0.000000 -0.300000 0.000000
						}
					}
				}
			}
		}
		JOINT Bone-70
		{
			OFFSET 0.000000 0.000000 -0.300000
			CHANNELS 3 Xrotation Yrotation Zrotation
			JOINT Bone-71
			{
				OFFSET -0.300000 0.000000 0.000000
				CHANNELS 3 Xrotation Yrotation Zrotation
				JOINT Bone-72
				{
					OFFSET 0.000000 0.000000 -0.700000
					CHANNELS 3 Xrotation Yrotation Zrotation
					JOINT Bone-73
					{
						OFFSET 0.000000 0.000000 -0.800000
						CHANNELS 3 Xrotation Yrotation Zrotation
						End Site
						{
							OFFSET 0.000000 -0.300000 0.000000
						}
					}
				}
			}
		}
	}
	JOINT Bone-10
	{
		OFFSET 0.000000 0.000000 2.000000
		CHANNELS 3 Xrotation Yrotation Zrotation
		JOINT Bone-30
		{
			OFFSET 0.000000 0.000000 1.000000
			CHANNELS 3 Xrotation Yrotation Zrotation
			End Site
			{
				OFFSET 0.000000 0.000000 1.000000
			}
		}
		JOINT Bone-40
		{
			OFFSET 0.000000 0.000000 1.000000
			CHANNELS 3 Xrotation Yrotation Zrotation
			JOINT Bone-41
			{
				OFFSET 0.500000 0.000000 -0.200000
				CHANNELS 3 Xrotation Yrotation Zrotation
				JOINT Bone-42
				{
					OFFSET 0.500000 0.000000 0.000000
					CHANNELS 3 Xrotation Yrotation Zrotation
					JOINT Bone-43
					{
						OFFSET 0.600000 0.000000 0.000000
						CHANNELS 3 Xrotation Yrotation Zrotation
						End Site
						{
							OFFSET 0.000000 -0.300000 0.000000
						}
					}
				}
			}
		}
		JOINT Bone-50
		{
			OFFSET 0.000000 0.000000 1.000000
			CHANNELS 3 Xrotation Yrotation Zrotation
			JOINT Bone-51
			{
				OFFSET -0.500000 0.000000 -0.204061
				CHANNELS 3 Xrotation Yrotation Zrotation
				JOINT Bone-52
				{
					OFFSET -0.500000 0.000000 0.004061
					CHANNELS 3 Xrotation Yrotation Zrotation
					JOINT Bone-53
					{
						OFFSET -0.600000 0.000000 0.000000
						CHANNELS 3 Xrotation Yrotation Zrotation
						End Site
						{
							OFFSET 0.000000 -0.300000 0.000000
						}
					}
				}
			}
		}
	}
}
MOTION
Frames: 17
Frame Time: 0.050000
0.000000 0.000000 0.000000 -0.000000 0.000000 -0.000000 -0.000000 0.000000 -0.000000 -0.000000 0.000000 0.000000 -0.000000 0.000000 -0.000000 -0.000000 0.000000 -0.000000 -0.000000 0.000000 -0.000000 -0.000000 0.000000 0.000000 -0.000000 0.000000 -0.000000 -0.000000 -0.000000 -0.000000 -0.000000 0.000000 -0.000000 -0.000000 0.000000 -0.000000 -0.000000 0.000000 -0.000000 -0.000000 -0.000003 -0.000001 -0.000000 89.999989 43.602814 -0.000004 0.000008 -126.869903 -5.724810 -0.000000 0.000000 -0.000000 0.000000 0.000000 -55.359899 -89.200160 -99.422310 0.000005 0.000011 126.869903 -5.724811 0.000000 0.000000 
0.000000 -0.072800 -0.048800 -0.000000 0.000000 -0.000000 -0.000000 0.000000 -0.000000 -0.000000 0.000000 0.000000 -1.604177 0.000000 0.000000 9.603146 -0.000000 -0.000000 -0.000000 0.000000 0.000000 -0.000000 0.000000 0.000000 -1.604177 0.000000 0.000000 9.603148 -0.000000 -0.000000 0.000000 0.000000 0.000000 -0.000000 0.000000 -0.000000 -0.000000 0.000000 -0.000000 -0.000000 -0.000003 -0.000001 -0.000000 89.999989 43.602814 -0.000004 0.000008 -126.869903 -5.724810 -0.000000 0.000000 -0.000000 0.000000 0.000000 -55.359899 -89.200160 -99.422310 0.000005 0.000011 126.869903 -5.724811 0.000000 0.000000 
0.000000 -0.246400 -0.174400 -0.000000 0.000000 -0.000000 -0.000000 0.000000 -0.000000 -0.000000 0.000000 0.000000 -5.953397 0.000000 0.000000 34.655844 -0.000000 0.000000 0.000000 0.000000 -0.000000 -0.000000 0.000000 0.000000 -5.953399 0.000000 0.000000 34.655840 0.000000 0.000000 0.000000 0.000000 0.000000 -0.000000 0.000000 -0.000000 -0.000000 0.000000 -0.000000 -0.000000 -0.000003 -0.000001 -0.000000 89.999989 43.602814 -0.000004 0.000008 -126.869903 -5.724810 -0.000000 0.000000 -0.000000 0.000000 0.000000 -55.359899 -89.200160 -99.422310 0.000005 0.000011 126.869903 -5.724811 0.000000 0.000000 
0.000000 -0.453600 -0.345600 -0.000000 0.000000 -0.000000 -0.000000 0.000000 -0.000000 -0.000000 0.000000 0.000000 -12.328101 0.000000 0.000000 65.886464 -0.000000 0.000000 0.000000 0.000000 -0.000000 -0.000000 0.000000 0.000000 -12.328103 0.000000 0.000000 65.886457 -0.000000 -0.000000 0.000000 0.000000 -0.000000 -0.000000 0.000000 -0.000000 -0.000000 0.000000 -0.000000 -0.000000 -0.000003 -0.000001 -0.000000 89.999989 43.602814 -0.000004 0.000008 -126.869903 -5.724810 -0.000000 0.000000 -0.000000 0.000000 0.000000 -55.359899 -89.200160 -99.422310 0.000005 0.000011 126.869903 -5.724811 0.000000 0.000000 
0.000000 -0.627200 -0.531200 -0.000000 0.000000 -0.000000 -0.000000 0.000000 -0.000000 -0.000000 0.000000 0.000000 -19.963653 0.000001 0.000000 93.120395 -0.000000 0.000000 0.000000 0.000000 -0.000000 -0.000000 0.000000 0.000000 -19.963656 0.000001 0.000000 93.120388 0.000000 0.000000 0.000000 0.000000 -0.000000 -0.000000 0.000000 -0.000000 -0.000000 0.000000 -0.000000 -0.000000 -0.000003 -0.000001 -0.000000 89.999989 43.602814 -0.000004 0.000008 -126.869903 -5.724810 -0.000000 0.000000 -0.000000 0.000000 0.000000 -55.359899 -89.200160 -99.422310 0.000005 0.000011 126.869903 -5.724811 0.000000 0.000000 
0.000000 -0.700000 -0.700000 -0.000000 0.000000 -0.000000 -0.000000 0.000000 -0.000000 -0.000000 0.000000 0.000000 -28.072486 0.000001 0.000000 112.619854 -0.000000 0.000000 0.000000 0.000000 -0.000000 -0.000000 0.000000 0.000000 -28.072487 0.000001 0.000000 112.619854 -0.000000 -0.000000 0.000000 0.000000 -0.000000 -0.000000 0.000000 -0.000000 -0.000000 0.000000 -0.000000 -0.000000 -0.000003 -0.000001 -0.000000 89.999989 43.602814 -0.000004 0.000008 -126.869903 -5.724810 -0.000000 0.000000 -0.000000 0.000000 0.000000 -55.359899 -89.200160 -99.422310 0.000005 0.000011 126.869903 -5.724811 0.000000 0.000000 
0.000000 -0.679200 -0.827200 -0.000000 0.000000 -0.000000 -0.000000 0.000000 -0.000000 -0.000000 0.000000 0.000000 -35.904652 0.000001 0.000000 125.557127 0.000000 0.000000 0.000000 0.000000 -0.000000 -0.000000 0.000000 0.000000 -35.904655 0.000001 0.000000 125.557127 0.000000 -0.000000 0.000000 0.000000 -0.000000 -0.000000 0.000000 -0.000000 -0.000000 0.000000 -0.000000 -0.000000 -0.000003 -0.000001 -0.000000 89.999989 43.602814 -0.000004 0.000008 -126.869903 -5.724810 -0.000000 0.000000 -0.000000 0.000000 0.000000 -55.359899 -89.200160 -99.422310 0.000005 0.000011 126.869903 -5.724811 0.000000 0.000000 
0.000000 -0.629600 -0.913600 -0.000000 0.000000 -0.000000 -0.000000 0.000000 -0.000000 -0.000000 0.000000 0.000000 -42.810348 0.000001 0.000000 133.932510 -0.000000 0.000000 0.000000 0.000000 -0.000000 -0.000000 0.000000 0.000000 -42.810359 0.000001 0.000000 133.932510 0.000000 0.000000 0.000000 0.000000 0.000000 -0.000000 0.000000 -0.000000 -0.000000 0.000000 -0.000000 -0.000000 -0.000003 -0.000001 -0.000000 89.999989 43.602814 -0.000004 0.000008 -126.869903 -5.724810 -0.000000 0.000000 -0.000000 0.000000 0.000000 -55.359899 -89.200160 -99.422310 0.000005 0.000011 126.869903 -5.724811 0.000000 0.000000 
0.000000 -0.570400 -0.966400 -0.000000 0.000000 -0.000000 -0.000000 0.000000 -0.000000 -0.000000 0.000000 0.000000 -48.264753 0.000001 0.000001 139.187193 -0.000000 0.000000 0.000000 0.000000 0.000000 -0.000000 0.000000 0.000000 -48.264760 0.000001 0.000001 139.187193 0.000000 0.000000 0.000000 0.000000 0.000000 -0.000000 0.000000 -0.000000 -0.000000 0.000000 -0.000000 -0.000000 -0.000003 -0.000001 -0.000000 89.999989 43.602814 -0.000004 0.000008 -126.869903 -5.724810 -0.000000 0.000000 -0.000000 0.000000 0.000000 -55.359899 -89.200160 -99.422310 0.000005 0.000011 126.869903 -5.724811 0.000000 0.000000 
0.000000 -0.520800 -0.992800 -0.000000 0.000000 -0.000000 -0.000000 0.000000 -0.000000 -0.000000 0.000000 0.000000 -51.839503 0.000001 0.000001 142.142671 0.000000 0.000000 0.000000 0.000000 0.000000 -0.000000 0.000000 0.000000 -51.839503 0.000001 0.000001 142.142671 -0.000000 -0.000000 0.000000 0.000000 -0.000000 -0.000000 0.000000 -0.000000 -0.000000 0.000000 -0.000000 -0.000000 -0.000003 -0.000001 -0.000000 89.999989 43.602814 -0.000004 0.000008 -126.869903 -5.724810 -0.000000 0.000000 -0.000000 0.000000 0.000000 -55.359899 -89.200160 -99.422310 0.000005 0.000011 126.869903 -5.724811 0.000000 0.000000 
0.000000 -0.500000 -1.000000 -0.000000 0.000000 -0.000000 -0.000000 0.000000 -0.000000 -0.000000 0.000000 0.000000 -53.130098 0.000001 0.000001 143.130097 -0.000000 0.000000 0.000000 0.000000 -0.000000 -0.000000 0.000000 0.000000 -53.130105 0.000001 0.000001 143.130097 -0.000000 0.000000 -0.000000 0.000000 0.000000 -0.000000 0.000000 -0.000000 -0.000000 0.000000 -0.000000 -0.000000 -0.000003 -0.000001 -0.000000 89.999989 43.602814 -0.000004 0.000008 -126.869903 -5.724810 -0.000000 0.000000 -0.000000 0.000000 0.000000 -55.359899 -89.200160 -99.422310 0.000005 0.000011 126.869903 -5.724811 0.000000 0.000000 
0.000000 -0.500000 -1.000000 -0.000000 0.000000 -0.000000 -0.000000 0.000000 -0.000000 -0.000000 0.000000 0.000000 -53.130098 0.000001 0.000001 143.130097 -0.000000 0.000000 0.000000 0.000000 -0.000000 -0.000000 0.000000 0.000000 -53.130105 0.000001 0.000001 143.130097 -0.000000 0.000000 -0.000000 0.000000 0.000000 -0.000000 0.000000 -0.000000 -0.000000 0.000000 -0.000000 -0.000000 -0.000003 -0.000001 -0.000000 89.999982 39.435351 -0.000004 0.000008 -121.673837 -5.724810 -0.000000 0.000001 -0.000000 0.000000 0.000000 -58.174497 -89.228464 -98.069393 0.000005 0.000010 121.673837 -5.724811 -0.000000 -0.000000 
0.000000 -0.500000 -1.000000 -0.000000 0.000000 -0.000000 -0.000000 0.000000 -0.000000 -0.000000 0.000000 0.000000 -53.130098 0.000001 0.000001 143.130097 -0.000000 0.000000 0.000000 0.000000 -0.000000 -0.000000 0.000000 0.000000 -53.130105 0.000001 0.000001 143.130097 -0.000000 0.000000 -0.000000 0.000000 0.000000 -0.000000 0.000000 -0.000000 -0.000000 0.000000 -0.000000 -0.000000 -0.000003 -0.000001 -0.000000 89.999989 29.062547 -0.000005 0.000006 -104.692081 -5.724810 -0.000000 -0.000001 -0.000000 0.000000 0.000000 -65.446558 -89.302654 -94.968726 0.000006 0.000008 104.692095 -5.724810 -0.000000 0.000000 
0.000000 -0.500000 -1.000000 -0.000000 0.000000 -0.000000 -0.000000 0.000000 -0.000000 -0.000000 0.000000 0.000000 -53.130098 0.000001 0.000001 143.130097 -0.000000 0.000000 0.000000 0.000000 -0.000000 -0.000000 0.000000 0.000000 -53.130105 0.000001 0.000001 143.130097 -0.000000 0.000000 -0.000000 0.000000 0.000000 -0.000000 0.000000 -0.000000 -0.000000 0.000000 -0.000000 -0.000000 -0.000003 -0.000001 -0.000000 89.999989 16.029119 -0.000005 0.000003 -70.291089 -5.724810 -0.000000 0.000002 -0.000000 0.000000 0.000000 -75.343304 -89.402204 -91.832173 0.000006 0.000005 70.291102 -5.724810 0.000000 -0.000001 
0.000000 -0.500000 -1.000000 -0.000000 0.000000 -0.000000 -0.000000 0.000000 -0.000000 -0.000000 0.000000 0.000000 -53.130098 0.000001 0.000001 143.130097 -0.000000 0.000000 0.000000 0.000000 -0.000000 -0.000000 0.000000 0.000000 -53.130105 0.000001 0.000001 143.130097 -0.000000 0.000000 -0.000000 0.000000 0.000000 -0.000000 0.000000 -0.000000 -0.000000 0.000000 -0.000000 -0.000000 -0.000003 -0.000001 -0.000000 89.999996 4.764256 -0.000002 0.000000 -23.499959 -5.724810 -0.000000 -0.000000 -0.000000 0.000000 0.000000 -84.992033 -89.492219 -90.216267 0.000003 0.000001 23.499959 -5.724810 0.000000 0.000002 
0.000000 -0.500000 -1.000000 -0.000000 0.000000 -0.000000 -0.000000 0.000000 -0.000000 -0.000000 0.000000 0.000000 -53.130098 0.000001 0.000001 143.130097 -0.000000 0.000000 0.000000 0.000000 -0.000000 -0.000000 0.000000 0.000000 -53.130105 0.000001 0.000001 143.130097 -0.000000 0.000000 -0.000000 0.000000 0.000000 -0.000000 0.000000 -0.000000 -0.000000 0.000000 -0.000000 -0.000000 -0.000003 -0.000001 -0.000000 89.999996 -0.000004 -0.000000 0.000000 0.000000 -5.724810 -0.000000 0.000000 -0.000000 0.000000 0.000000 -89.538787 -89.530864 -89.998876 0.000000 -0.000000 0.000000 -5.724810 0.000000 -0.000000 
0.000000 -0.500000 -1.000000 -0.000000 0.000000 -0.000000 -0.000000 0.000000 -0.000000 -0.000000 0.000000 0.000000 -53.130098 0.000001 0.000001 143.130097 -0.000000 0.000000 0.000000 0.000000 -0.000000 -0.000000 0.000000 0.000000 -53.130105 0.000001 0.000001 143.130097 -0.000000 0.000000 -0.000000 0.000000 0.000000 1.191710 0.000000 -0.000000 5.953400 0.000000 -0.000000 0.000002 -0.000003 -0.000001 -0.000000 89.999989 -0.000004 0.000000 -0.000000 0.000000 -5.724810 -0.000000 0.000000 0.000002 0.000000 0.000000 -89.538876 -89.530864 -89.998773 0.000000 -0.000000 0.000000 -5.724810 -0.000000 0.000000 
